<svg width="150" height="118" viewBox="0 0 150 118" fill="none" xmlns="http://www.w3.org/2000/svg">
<path d="M137.852 40.784C137.852 40.784 142.968 34.0466 140.008 33.2046C129.397 30.1862 41.4768 5.17433 30.8655 2.15635C27.9056 1.3145 28.7094 9.73569 28.7094 9.73569M137.852 40.784L125.725 37.3342M137.852 40.784C137.852 40.784 136.855 44.2878 135.993 47.3195C135.13 50.3512 128.979 43.1754 127.254 49.2389C125.529 55.3024 132.024 55.5114 132.024 55.5114C132.024 55.5114 138.087 57.2363 141.119 58.0988C144.151 58.9612 132.286 94.9109 130.77 94.4797C129.254 94.0485 121.674 91.8923 117.127 90.5986C114.992 89.9915 113.371 92.1391 112.801 94.2838C112.011 97.258 116.055 100.125 117.571 100.556C119.087 100.988 120.94 100.235 120.603 101.419C120.172 102.935 118.878 107.482 118.878 107.482M118.878 107.482L27.9259 81.6087M118.878 107.482C118.878 107.482 117.633 115.321 116.722 115.062C110.658 113.337 13.6428 85.7382 7.57934 84.0133C6.06347 83.5821 9.73546 76.434 9.73546 76.434M9.73546 76.434L21.8624 79.8838M9.73546 76.434C9.73546 76.434 8.93167 68.0126 11.8916 68.8546C13.4075 69.2859 15.5871 69.9059 17.9551 70.5795C19.4709 71.0108 21.9741 69.0922 22.2805 66.8944C22.6794 64.0326 20.1112 63.0002 17.0795 62.1377C12.9356 60.9589 5.60592 62.1509 6.46837 59.1191C7.33083 56.0874 15.5241 27.2859 16.8178 22.7382C17.5082 20.3112 24.6401 23.325 29.376 24.6722C33.0704 25.7231 34.3548 24.45 34.7861 22.9341C36.0814 18.3806 29.7893 17.4593 29.7893 17.4593C29.7893 17.4593 27.7044 17.3834 26.7576 16.5968C24.6148 14.8167 28.7094 9.73569 28.7094 9.73569M28.7094 9.73569L119.662 35.6093M27.2462 55.1986C28.5399 50.6508 30.696 43.0715 32.4209 37.0082C33.3852 33.6184 38.5401 34.9392 40.8627 36.1324C44.3945 37.9466 42.6008 41.5424 42.6008 41.5424C42.6008 41.5424 39.5312 45.5848 41.3071 46.09C44.3389 46.9525 45.9264 47.4046 48.8864 48.2464C51.9182 49.1086 51.7678 44.1502 54.7278 44.9922C57.7595 45.8547 53.8183 49.6494 56.4658 50.4025C61.0134 51.6962 63.8568 52.5054 68.5927 53.8523C71.6245 54.7146 71.4023 49.7357 75.9499 51.0294C80.4976 52.3231 77.3709 56.3497 80.7197 57.3021C85.2674 58.5956 88.1107 59.4051 92.8466 60.7519C95.8784 61.6142 94.5715 54.6887 97.6033 55.5509C100.635 56.4131 96.2626 61.7239 98.9101 62.4768C103.458 63.7703 106.301 64.5798 111.037 65.9267C114.069 66.7889 114.278 60.2942 114.278 60.2942C114.278 60.2942 115.14 57.2624 118.172 58.1249C121.204 58.9873 121.446 60.2699 121.857 62.4505C123.164 69.3765 115.167 80.2098 115.167 80.2098C115.167 80.2098 112.357 84.3261 109.325 83.4637C106.294 82.6012 106.725 81.0851 107.587 78.0536C108.261 75.6857 112.344 72.8524 109.312 71.9901C105.168 70.8116 103.249 70.265 98.7011 68.9716C96.1895 68.2572 95.3714 72.94 92.8598 72.2255C90.3482 71.511 92.6377 67.2464 89.6059 66.3842C85.4619 65.2057 83.5424 64.6591 78.9948 63.3656C75.646 62.4131 74.6399 68.2812 71.2064 67.7042C67.3199 67.0511 69.8996 60.778 65.3519 59.4846C61.208 58.306 59.2885 57.7597 54.7409 56.466C52.0934 55.7129 52.5848 64.0451 49.9842 61.667C47.4149 59.3175 50.1933 55.1723 45.6456 53.8786C42.0937 52.8682 36.9817 49.7752 36.5504 51.2913C35.8768 53.6592 34.8255 57.3548 34.8255 57.3548C34.8255 57.3548 33.5319 61.9021 30.5001 61.0399C27.9885 60.3256 26.3185 58.4597 27.2462 55.1986Z" stroke="url(#paint0_linear_6_74)"/>
<circle cx="119.662" cy="35.609" r="1.57601" transform="rotate(15.8797 119.662 35.609)" fill="#505050"/>
<circle cx="125.725" cy="37.3343" r="1.57601" transform="rotate(15.8797 125.725 37.3343)" fill="#606060"/>
<circle cx="27.926" cy="81.608" r="1.57601" transform="rotate(15.8797 27.926 81.608)" fill="#2E2E2E"/>
<circle cx="21.8624" cy="79.8836" r="1.57601" transform="rotate(15.8797 21.8624 79.8836)" fill="#2A2A2A"/>
<defs>
<linearGradient id="paint0_linear_6_74" x1="10.5585" y1="38.9814" x2="139.407" y2="75.6356" gradientUnits="userSpaceOnUse">
<stop/>
<stop offset="0.68" stop-color="#525252" stop-opacity="0.690526"/>
<stop offset="0.95" stop-color="white" stop-opacity="0.4"/>
</linearGradient>
</defs>
</svg>
